{
    "asset" : {
        "generator" : "Khronos glTF Blender I/O v3.4.50",
        "version" : "2.0"
    },
    "scene" : 0,
    "scenes" : [
        {
            "name" : "Scene",
            "nodes" : [
                0
            ]
        }
    ],
    "nodes" : [
        {
            "mesh" : 0,
            "name" : "Plane",
            "scale" : [
                3.8924379348754883,
                3.8924379348754883,
                3.8924379348754883
            ],
            "translation" : [
                0,
                0,
                1.100003719329834
            ]
        }
    ],
    "materials" : [
        {
            "doubleSided" : true,
            "name" : "Material",
            "pbrMetallicRoughness" : {
                "baseColorFactor" : [
                    0.800000011920929,
                    0.800000011920929,
                    0.800000011920929,
                    1
                ],
                "metallicFactor" : 0,
                "roughnessFactor" : 0.4000000059604645
            }
        }
    ],
    "meshes" : [
        {
            "name" : "Plane",
            "primitives" : [
                {
                    "attributes" : {
                        "POSITION" : 0,
                        "TEXCOORD_0" : 1,
                        "NORMAL" : 2
                    },
                    "indices" : 3,
                    "material" : 0
                }
            ]
        }
    ],
    "accessors" : [
        {
            "bufferView" : 0,
            "componentType" : 5126,
            "count" : 30682,
            "max" : [
                0.26965415477752686,
                0.20563431084156036,
                -0.013267546892166138
            ],
            "min" : [
                -0.26965415477752686,
                -0.24059444665908813,
                -0.5412957072257996
            ],
            "type" : "VEC3"
        },
        {
            "bufferView" : 1,
            "componentType" : 5126,
            "count" : 30682,
            "type" : "VEC2"
        },
        {
            "bufferView" : 2,
            "componentType" : 5126,
            "count" : 30682,
            "type" : "VEC3"
        },
        {
            "bufferView" : 3,
            "componentType" : 5123,
            "count" : 91872,
            "type" : "SCALAR"
        }
    ],
    "bufferViews" : [
        {
            "buffer" : 0,
            "byteLength" : 368184,
            "byteOffset" : 0,
            "target" : 34962
        },
        {
            "buffer" : 0,
            "byteLength" : 245456,
            "byteOffset" : 368184,
            "target" : 34962
        },
        {
            "buffer" : 0,
            "byteLength" : 368184,
            "byteOffset" : 613640,
            "target" : 34962
        },
        {
            "buffer" : 0,
            "byteLength" : 183744,
            "byteOffset" : 981824,
            "target" : 34963
        }
    ],
    "buffers" : [
        {
            "byteLength" : 1165568,
            "uri" : "data:application/octet-stream;base64,"
        }
    ]
}
