{
    "asset" : {
        "generator" : "Khronos glTF Blender I/O v3.4.50",
        "version" : "2.0"
    },
    "scene" : 0,
    "scenes" : [
        {
            "name" : "Scene",
            "nodes" : [
                0
            ]
        }
    ],
    "nodes" : [
        {
            "mesh" : 0,
            "name" : "Brain.001",
            "rotation" : [
                0,
                -0.0028413275722414255,
                0,
                0.9999959468841553
            ],
            "scale" : [
                0.10000002384185791,
                0.10000001639127731,
                0.10000002384185791
            ],
            "translation" : [
                0.02527347393333912,
                0.7574176788330078,
                0.2819702923297882
            ]
        }
    ],
    "materials" : [
        {
            "doubleSided" : true,
            "name" : "Material.001",
            "pbrMetallicRoughness" : {
                "baseColorFactor" : [
                    0.8000000715255737,
                    0.39205095171928406,
                    0.31154146790504456,
                    1
                ],
                "metallicFactor" : 0,
                "roughnessFactor" : 0.3499999940395355
            }
        },
        {
            "doubleSided" : true,
            "name" : "Material",
            "pbrMetallicRoughness" : {
                "baseColorFactor" : [
                    0.8000000715255737,
                    0.49880221486091614,
                    0.3718453049659729,
                    1
                ],
                "metallicFactor" : 0,
                "roughnessFactor" : 0.17605632543563843
            }
        }
    ],
    "meshes" : [
        {
            "name" : "Internal.002",
            "primitives" : [
                {
                    "attributes" : {
                        "POSITION" : 0,
                        "TEXCOORD_0" : 1,
                        "NORMAL" : 2
                    },
                    "indices" : 3,
                    "material" : 0
                },
                {
                    "attributes" : {
                        "POSITION" : 4,
                        "TEXCOORD_0" : 5,
                        "NORMAL" : 6
                    },
                    "indices" : 7,
                    "material" : 1
                }
            ]
        }
    ],
    "accessors" : [
        {
            "bufferView" : 0,
            "componentType" : 5126,
            "count" : 1603,
            "max" : [
                1.4838306903839111,
                6.090977668762207,
                7.143853664398193
            ],
            "min" : [
                -1.9995169639587402,
                -9.217742919921875,
                -7.2136101722717285
            ],
            "type" : "VEC3"
        },
        {
            "bufferView" : 1,
            "componentType" : 5126,
            "count" : 1603,
            "type" : "VEC2"
        },
        {
            "bufferView" : 2,
            "componentType" : 5126,
            "count" : 1603,
            "type" : "VEC3"
        },
        {
            "bufferView" : 3,
            "componentType" : 5123,
            "count" : 8367,
            "type" : "SCALAR"
        },
        {
            "bufferView" : 4,
            "componentType" : 5126,
            "count" : 7967,
            "max" : [
                6.308362007141113,
                6.222833633422852,
                7.666667461395264
            ],
            "min" : [
                -6.386676788330078,
                -5.311878204345703,
                -9.249072074890137
            ],
            "type" : "VEC3"
        },
        {
            "bufferView" : 5,
            "componentType" : 5126,
            "count" : 7967,
            "type" : "VEC2"
        },
        {
            "bufferView" : 6,
            "componentType" : 5126,
            "count" : 7967,
            "type" : "VEC3"
        },
        {
            "bufferView" : 7,
            "componentType" : 5123,
            "count" : 46131,
            "type" : "SCALAR"
        }
    ],
    "bufferViews" : [
        {
            "buffer" : 0,
            "byteLength" : 19236,
            "byteOffset" : 0,
            "target" : 34962
        },
        {
            "buffer" : 0,
            "byteLength" : 12824,
            "byteOffset" : 19236,
            "target" : 34962
        },
        {
            "buffer" : 0,
            "byteLength" : 19236,
            "byteOffset" : 32060,
            "target" : 34962
        },
        {
            "buffer" : 0,
            "byteLength" : 16734,
            "byteOffset" : 51296,
            "target" : 34963
        },
        {
            "buffer" : 0,
            "byteLength" : 95604,
            "byteOffset" : 68032,
            "target" : 34962
        },
        {
            "buffer" : 0,
            "byteLength" : 63736,
            "byteOffset" : 163636,
            "target" : 34962
        },
        {
            "buffer" : 0,
            "byteLength" : 95604,
            "byteOffset" : 227372,
            "target" : 34962
        },
        {
            "buffer" : 0,
            "byteLength" : 92262,
            "byteOffset" : 322976,
            "target" : 34963
        }
    ],
    "buffers" : [
        {
            "byteLength" : 415240,
            "uri" : "data:application/octet-stream;base64,"
        }
    ]
}
